<svg xmlns="http://www.w3.org/2000/svg" xmlns:xlink="http://www.w3.org/1999/xlink" width="110" zoomAndPan="magnify" viewBox="0 0 82.5 82.499998" height="110" preserveAspectRatio="xMidYMid meet" version="1.0"><defs><g/></defs><g fill="#000000" fill-opacity="1"><g transform="translate(4.227036, 45.083513)"><g><path d="M 8.867188 -4.527344 C 8.867188 -3.640625 8.558594 -2.859375 7.941406 -2.222656 C 7.324219 -1.5625 6.5625 -1.234375 5.675781 -1.234375 C 4.792969 -1.234375 4.03125 -1.5625 3.414062 -2.222656 C 2.796875 -2.859375 2.488281 -3.621094 2.488281 -4.527344 C 2.488281 -5.410156 2.796875 -6.171875 3.414062 -6.828125 C 4.03125 -7.488281 4.792969 -7.816406 5.675781 -7.816406 C 6.5625 -7.816406 7.324219 -7.488281 7.941406 -6.828125 C 8.558594 -6.171875 8.867188 -5.390625 8.867188 -4.527344 Z M 2.449219 1.234375 L 0.96875 1.234375 C 1.132812 2.199219 1.5625 3.042969 2.304688 3.765625 C 3.207031 4.691406 4.320312 5.140625 5.617188 5.140625 C 6.890625 5.140625 8 4.691406 8.925781 3.765625 C 9.832031 2.859375 10.304688 1.75 10.304688 0.453125 L 10.304688 -9.050781 L 8.867188 -9.050781 L 8.867188 -7.527344 C 8.785156 -7.609375 8.703125 -7.714844 8.617188 -7.816406 C 7.714844 -8.761719 6.664062 -9.257812 5.472656 -9.257812 C 4.195312 -9.257812 3.148438 -8.761719 2.285156 -7.816406 C 1.460938 -6.871094 1.050781 -5.78125 1.050781 -4.527344 C 1.050781 -3.25 1.460938 -2.160156 2.285156 -1.234375 C 3.148438 -0.265625 4.195312 0.207031 5.472656 0.207031 C 6.707031 0.207031 7.753906 -0.265625 8.617188 -1.234375 C 8.703125 -1.316406 8.785156 -1.417969 8.867188 -1.5 L 8.867188 0.453125 C 8.867188 1.359375 8.535156 2.117188 7.898438 2.757812 C 7.261719 3.394531 6.5 3.703125 5.617188 3.703125 C 4.710938 3.703125 3.949219 3.394531 3.3125 2.757812 C 2.859375 2.304688 2.570312 1.808594 2.449219 1.234375 Z M 2.449219 1.234375 "/></g></g></g><g fill="#000000" fill-opacity="1"><g transform="translate(16.07335, 45.083513)"><g><path d="M 8.742188 -4.527344 C 8.742188 -3.640625 8.433594 -2.859375 7.816406 -2.222656 C 7.199219 -1.5625 6.4375 -1.234375 5.554688 -1.234375 C 4.648438 -1.234375 3.886719 -1.5625 3.269531 -2.222656 C 2.652344 -2.859375 2.367188 -3.640625 2.367188 -4.527344 C 2.367188 -5.390625 2.652344 -6.171875 3.269531 -6.828125 C 3.886719 -7.488281 4.648438 -7.816406 5.554688 -7.816406 C 6.4375 -7.816406 7.199219 -7.488281 7.816406 -6.828125 C 8.433594 -6.171875 8.742188 -5.390625 8.742188 -4.527344 Z M 10.183594 0 L 10.183594 -9.050781 L 8.742188 -9.050781 L 8.742188 -7.488281 C 8.660156 -7.609375 8.558594 -7.714844 8.476562 -7.816406 C 7.609375 -8.761719 6.5625 -9.257812 5.328125 -9.257812 C 4.074219 -9.257812 3.023438 -8.761719 2.160156 -7.816406 C 1.335938 -6.871094 0.925781 -5.78125 0.925781 -4.527344 C 0.925781 -3.25 1.335938 -2.160156 2.160156 -1.234375 C 3.023438 -0.265625 4.074219 0.207031 5.328125 0.207031 C 6.5625 0.207031 7.609375 -0.265625 8.476562 -1.234375 C 8.558594 -1.316406 8.660156 -1.417969 8.742188 -1.542969 L 8.742188 0 Z M 10.183594 0 "/></g></g></g><g fill="#000000" fill-opacity="1"><g transform="translate(27.796268, 45.083513)"><g><path d="M 0.410156 -7.714844 L 2.675781 -7.714844 L 2.675781 0 L 4.113281 0 L 4.113281 -7.714844 L 6.355469 -7.714844 L 6.355469 -9.050781 L 4.113281 -9.050781 L 4.113281 -12.570312 L 2.675781 -12.570312 L 2.675781 -9.050781 L 0.410156 -9.050781 Z M 0.410156 -7.714844 "/></g></g></g><g fill="#000000" fill-opacity="1"><g transform="translate(34.562654, 45.083513)"><g><path d="M 10.386719 -4.730469 C 10.386719 -5.964844 9.894531 -7.035156 8.949219 -7.960938 C 8.023438 -8.84375 6.910156 -9.296875 5.65625 -9.296875 C 4.339844 -9.296875 3.230469 -8.824219 2.304688 -7.898438 C 1.378906 -6.972656 0.925781 -5.863281 0.925781 -4.566406 C 0.925781 -3.25 1.378906 -2.140625 2.304688 -1.234375 C 2.734375 -0.800781 3.230469 -0.472656 3.804688 -0.226562 C 4.382812 0.0195312 5.058594 0.144531 5.863281 0.144531 C 6.664062 0.144531 7.445312 -0.101562 8.226562 -0.597656 C 9.011719 -1.089844 9.585938 -1.789062 9.976562 -2.652344 L 8.332031 -2.652344 C 8 -2.222656 7.609375 -1.890625 7.136719 -1.644531 C 6.664062 -1.398438 6.171875 -1.296875 5.65625 -1.296875 C 4.875 -1.296875 4.175781 -1.542969 3.558594 -2.058594 C 2.941406 -2.550781 2.550781 -3.1875 2.425781 -3.96875 L 10.386719 -3.96875 Z M 8.867188 -5.203125 L 2.449219 -5.203125 C 2.53125 -5.574219 2.675781 -5.925781 2.878906 -6.253906 C 3.539062 -7.324219 4.464844 -7.859375 5.65625 -7.859375 C 6.417969 -7.859375 7.097656 -7.609375 7.691406 -7.117188 C 8.308594 -6.601562 8.679688 -5.964844 8.867188 -5.203125 Z M 8.867188 -5.203125 "/></g></g></g><g fill="#000000" fill-opacity="1"><g transform="translate(45.771404, 45.083513)"><g><path d="M 9.996094 -5.800781 C 9.710938 -6.808594 9.152344 -7.632812 8.351562 -8.269531 C 7.507812 -8.90625 6.582031 -9.234375 5.554688 -9.234375 C 4.257812 -9.234375 3.148438 -8.761719 2.261719 -7.835938 C 1.359375 -6.910156 0.925781 -5.800781 0.925781 -4.527344 C 0.925781 -3.230469 1.359375 -2.140625 2.261719 -1.191406 C 2.675781 -0.761719 3.148438 -0.410156 3.722656 -0.164062 C 4.277344 0.0820312 4.855469 0.207031 5.429688 0.207031 C 6.007812 0.207031 6.519531 0.144531 6.972656 -0.0195312 C 8.414062 -0.535156 9.402344 -1.5 9.914062 -2.960938 L 8.289062 -2.960938 C 8 -2.449219 7.632812 -2.035156 7.136719 -1.75 C 6.644531 -1.441406 6.128906 -1.296875 5.554688 -1.296875 C 4.667969 -1.296875 3.929688 -1.605469 3.3125 -2.242188 C 2.695312 -2.878906 2.40625 -3.640625 2.40625 -4.527344 C 2.40625 -5.367188 2.695312 -6.128906 3.3125 -6.769531 C 3.601562 -7.054688 3.929688 -7.300781 4.320312 -7.46875 C 4.691406 -7.632812 5.164062 -7.734375 5.699219 -7.734375 C 6.234375 -7.734375 6.746094 -7.550781 7.28125 -7.199219 C 7.796875 -6.828125 8.1875 -6.375 8.433594 -5.800781 Z M 9.996094 -5.800781 "/></g></g></g><g fill="#000000" fill-opacity="1"><g transform="translate(56.486562, 45.083513)"><g><path d="M 8.949219 -4.566406 C 8.949219 -3.660156 8.617188 -2.902344 7.980469 -2.261719 C 7.324219 -1.605469 6.5625 -1.296875 5.65625 -1.296875 C 4.75 -1.296875 3.96875 -1.605469 3.332031 -2.261719 C 2.675781 -2.902344 2.367188 -3.660156 2.367188 -4.566406 C 2.367188 -5.472656 2.675781 -6.234375 3.332031 -6.890625 C 3.96875 -7.527344 4.75 -7.859375 5.65625 -7.859375 C 6.5625 -7.859375 7.324219 -7.527344 7.980469 -6.890625 C 8.617188 -6.234375 8.949219 -5.472656 8.949219 -4.566406 Z M 10.386719 -4.566406 C 10.386719 -5.863281 9.914062 -6.972656 8.988281 -7.898438 C 8.0625 -8.824219 6.953125 -9.296875 5.65625 -9.296875 C 4.339844 -9.296875 3.230469 -8.824219 2.304688 -7.898438 C 1.378906 -6.972656 0.925781 -5.863281 0.925781 -4.566406 C 0.925781 -3.25 1.378906 -2.140625 2.304688 -1.234375 C 3.230469 -0.308594 4.359375 0.144531 5.65625 0.144531 C 6.933594 0.144531 8.0625 -0.308594 8.988281 -1.234375 C 9.914062 -2.140625 10.386719 -3.25 10.386719 -4.566406 Z M 10.386719 -4.566406 "/></g></g></g><g fill="#000000" fill-opacity="1"><g transform="translate(67.798144, 45.083513)"><g><path d="M 7.796875 0 L 9.234375 0 L 9.234375 -5.65625 C 9.234375 -6.707031 8.949219 -7.550781 8.414062 -8.1875 C 8.125 -8.515625 7.796875 -8.761719 7.40625 -8.949219 C 6.992188 -9.132812 6.480469 -9.234375 5.84375 -9.234375 C 5.183594 -9.234375 4.628906 -9.050781 4.132812 -8.722656 C 3.660156 -8.414062 3.269531 -8 2.984375 -7.488281 L 2.984375 -9.050781 L 1.542969 -9.050781 L 1.542969 0 L 2.984375 0 L 2.984375 -3.785156 C 2.984375 -4.9375 3.1875 -5.84375 3.621094 -6.519531 C 3.867188 -6.890625 4.175781 -7.199219 4.566406 -7.445312 C 4.9375 -7.671875 5.449219 -7.796875 6.066406 -7.796875 C 6.683594 -7.796875 7.117188 -7.570312 7.382812 -7.160156 C 7.652344 -6.746094 7.796875 -6.234375 7.796875 -5.65625 Z M 7.796875 0 "/></g></g></g></svg>